<?xml version="1.0" ?><!DOCTYPE svg  PUBLIC '-//W3C//DTD SVG 1.1//EN'  'http://www.w3.org/Graphics/SVG/1.1/DTD/svg11.dtd'><svg enable-background="new 0 0 48 48" id="Layer_1" version="1.1" viewBox="0 0 48 48" xml:space="preserve" xmlns="http://www.w3.org/2000/svg" xmlns:xlink="http://www.w3.org/1999/xlink"><g fill="#0068bd"><path d="M45.5,39.3l-9.2-7.9c0,0.1-0.1,0.1-0.1,0.2c3.5-5.6,2.8-13-2-17.8c-5.6-5.6-14.7-5.6-20.4,0c-5.6,5.6-5.6,14.7,0,20.4   c4.8,4.8,12.3,5.5,17.8,2c-0.1,0-0.1,0.1-0.2,0.1l7.8,9.2c1.7,2,4.7,2.1,6.5,0.3C47.6,44,47.5,41,45.5,39.3z M24,34.8   c-6,0-10.8-4.8-10.8-10.8S18,13.2,24,13.2S34.8,18,34.8,24S30,34.8,24,34.8z"/><path d="M0.7,29.4c0.3,1.4,0.7,2.7,1.3,4l1.8-0.8C3.4,31.4,3,30.2,2.7,29L0.7,29.4z"/><path d="M22.9,2.1l-0.1-2c-1.4,0.1-2.8,0.3-4.1,0.6l0.4,1.9C20.3,2.4,21.6,2.2,22.9,2.1z"/><path d="M2.1,24c0-0.9,0.1-1.8,0.2-2.6l-2-0.2c-0.1,1-0.2,1.9-0.2,2.9c0,0.4,0,0.9,0,1.3l2-0.1C2.1,24.8,2.1,24.4,2.1,24z"/><path d="M4,37.1c0.8,1.2,1.6,2.3,2.6,3.3L8,39c-0.9-1-1.6-2-2.3-3L4,37.1z"/><path d="M8.5,8.5C8.7,8.3,8.9,8.2,9.1,8L7.7,6.5C7.5,6.7,7.3,6.9,7.1,7.1C6.3,7.9,5.6,8.7,4.9,9.6l1.6,1.2C7.1,10,7.8,9.2,8.5,8.5z   "/><path d="M9.7,43.1c1.1,0.8,2.3,1.6,3.5,2.2l0.9-1.8c-1.1-0.6-2.2-1.3-3.2-2L9.7,43.1z"/><path d="M15.4,3.8L14.7,2c-1.3,0.5-2.5,1.2-3.7,2l1.1,1.7C13.1,4.9,14.3,4.3,15.4,3.8z"/><path d="M4.5,14.1l-1.8-0.9c-0.6,1.2-1.2,2.5-1.6,3.9L3,17.7C3.4,16.4,3.9,15.2,4.5,14.1z"/><path d="M47.3,18.7c-0.3-1.4-0.7-2.7-1.3-4l-1.8,0.8c0.5,1.2,0.9,2.4,1.2,3.6L47.3,18.7z"/><path d="M25.2,45.9l0.1,2c1.4-0.1,2.8-0.3,4.1-0.6l-0.4-2C27.8,45.6,26.5,45.8,25.2,45.9z"/><path d="M44.1,11c-0.8-1.2-1.6-2.3-2.6-3.3L40,9.1c0.9,0.9,1.7,1.9,2.4,3L44.1,11z"/><path d="M38.4,4.9c-1.1-0.8-2.3-1.6-3.5-2.2L34,4.5c1.1,0.6,2.2,1.3,3.2,2L38.4,4.9z"/><path d="M47.9,22.8l-2,0.1c0,0.4,0,0.7,0,1.1c0,0.9-0.1,1.8-0.2,2.7l2,0.2c0.1-1,0.2-2,0.2-3C47.9,23.6,47.9,23.2,47.9,22.8z"/><path d="M17.1,46.9c1.3,0.4,2.7,0.7,4.1,0.9l0.2-2c-1.3-0.2-2.5-0.4-3.7-0.8L17.1,46.9z"/><path d="M31,1.2c-1.3-0.4-2.7-0.7-4.1-0.9l-0.2,2c1.3,0.2,2.5,0.4,3.7,0.8L31,1.2z"/><path d="M25.6,41.8c-1.1,0.1-2.2,0.1-3.3,0l-0.2,2c0.6,0.1,1.2,0.1,1.8,0.1c0.6,0,1.2,0,1.8-0.1L25.6,41.8z"/><path d="M32.3,6c-2.1-1-4.3-1.5-6.6-1.7l-0.2,2c2.1,0.2,4.1,0.7,6,1.6L32.3,6z"/><path d="M12.6,7.8l1.2,1.6c1.7-1.2,3.6-2.1,5.6-2.6l-0.5-1.9C16.6,5.5,14.5,6.5,12.6,7.8z"/><path d="M37.9,9.9l-1.4,1.4l0.1,0.1c1.4,1.4,2.6,3.1,3.5,4.9l1.8-0.9C40.9,13.4,39.6,11.6,37.9,9.9L37.9,9.9z"/><path d="M10,38c1.6,1.6,3.5,2.9,5.5,3.9l0.9-1.8c-1.8-0.9-3.5-2.1-5-3.6L10,38z"/><path d="M7.8,31.5c-0.9-1.9-1.4-3.9-1.6-6l-2,0.2C4.4,28,5,30.2,6,32.3L7.8,31.5z"/><path d="M4.8,18.9l1.9,0.5c0.5-2,1.4-3.9,2.6-5.6l-1.6-1.1C6.4,14.5,5.4,16.6,4.8,18.9z"/><path d="M43.7,25.8c0.1-1.2,0.1-2.5,0-3.7l-2,0.2c0.1,1.1,0.1,2.2,0,3.3L43.7,25.8z"/><rect height="7.4" width="2" x="17.4" y="21.1"/><rect height="10.5" width="2" x="21.1" y="17.9"/><rect height="6.1" width="2" x="24.9" y="22.4"/><rect height="8.1" width="2" x="28.6" y="20.4"/></g></svg>